<svg width="137" height="32" fill="none" xmlns="http://www.w3.org/2000/svg"><g clip-path="url(#clip0_142_19518)"><path d="M2.252 31.983a2.237 2.237 0 01-2.241-2.234V2.293A2.233 2.233 0 012.252.019h131.8a2.229 2.229 0 012.233 2.233v27.456a2.267 2.267 0 01-2.274 2.234H2.252v.04z" fill="#231F20"/><path d="M134.011.994a1.433 1.433 0 011.327 1.262l-.024 27.456a1.464 1.464 0 01-1.336 1.27H2.212a1.377 1.377 0 01-1.23-1.278V2.248A1.36 1.36 0 012.212.986L134.01.994z" fill="#F7EB1C"/><path d="M133.67 21.886l-89.06-.148c-5.738-.057-11.697-.041-16.889-1.66-.019.48-.082.958-.188 1.426a2.458 2.458 0 00-.71-1.188c-.74-.783-1.286 0-1.515-.57-.41-.344-1.115-.065-1.541.074a5.42 5.42 0 01-.082-1.856l2.242-2.828-.93-.774 1.253-1.336.562.295 2.868-2.094a.675.675 0 00.303-.603.618.618 0 00-.229-.48L27.168 8.46l-.262.099a25.643 25.643 0 01-2.664-1.369s.381-.356.148-.717a.557.557 0 00-.635-.115l.073-.114a1.48 1.48 0 00.164-.693c-.23-.873-1.09-1.32-1.897-1.426-.643-.115-1.279.279-1.64-.287a.484.484 0 010-.447c.025-.139.132-.147.19-.287-.521-.098-.595.14-.742.164-.197.14-.287-.098-.214-.286-.717.262-.82.139-.995-.41a1.148 1.148 0 00-.947-.332c-1.23.123-1.492 1.672-2.606 1.97a.721.721 0 01-.57-.237 1.032 1.032 0 01-.23-1.09 5.77 5.77 0 00-1.098.57c-.123.049 0-.373-.332-.27a3.512 3.512 0 01-.577.43 1.64 1.64 0 01-.89.098c-1.098-.447-1.79.627-2.532 1.328-.328.196-.504.04-.82-.189.079.36.23.698.447.996.098.123.172.287-.025.381.344.488.93.603 1.377.947.123.741.553-.131.881.123-.074.82.619.032.971.38.89.554 1.685 1.329 2.795 1.353.115.578.262 0 .783.05.148.13-.09.41.123.569.89-.332 1.93.05 2.844-.14.82-.114 1.5-.819 1.971-1.45.302.272.685.438 1.09.471v-.164a1.501 1.501 0 011.016-.946v.04a.41.41 0 00.09.669l-2.335 2.549v-.82h-8.258v8.757l-.254.172c-.279.82-.545-.147-1.205-.38-.446-.132-1.352.188-2.102.56-1.7.94-2.315 1.484-2.844 2.73a21.645 21.645 0 01-2.991-.123v1.303a33.98 33.98 0 013.028-.237c.125.302.32.57.57.782.47.189.52-.48.946-.856h2.234l.188.627-1.352 1.23 2.086.626a.905.905 0 00.454-.106 15.353 15.353 0 003.554-2.37h2.458l2.119 1.64.7-.89.296.157c.572.313 1.022.81 1.278 1.41l-1.073.856s.725.18.725.164l-.881 1.23c-.41.462-.66 1.032-1.09 1.45a3.278 3.278 0 00-1.443-.644h-.41a.82.82 0 100 1.64.82.82 0 00.82-.718c.344-.106.603.173.82.41.033.164-.074.381.14.48h5.953c-.188-.562-.47-.636-.864-.955-.394-.32-.758-.447-2.77-.553.19-.77.548-1.488 1.049-2.103l1.278.082v-2.524s-.725.32-.741.311a13.154 13.154 0 00-1.726-1.417h1.439c.172.27.204.643.52.82.438.409.881-.497 1.18.212a.992.992 0 00.93.164c1.09.61 1.599.197 1.599.197.41-.238.463-.238.7-.619a3.74 3.74 0 00.357-.783s.148 1.71.148 1.726a64.751 64.751 0 0113.773-1.566l92.204-.381c.116-.105.238-.204.365-.295a3.674 3.674 0 01-.348-.172l-.009-.017zM7.818 21.77c.356-.409.78-.753 1.254-1.017a5.9 5.9 0 00.049 1.025l-1.303-.008zm2.508 0c.051-.787.166-1.568.344-2.336.364.238.762.422 1.18.545v1.401l-.7.41-.825-.02zm1.483 1.04l-.357.099c.09-.197.033-.303.115-.357h.717a1.763 1.763 0 01-.47.255l-.005.004zm1.492-1.024h-1.303a1.53 1.53 0 010-.262h1.639c-.097.1-.208.185-.328.254l-.008.008zm1.483.074l.213-.32h.254l.41.328-.877-.008zm7.47-.05H20.69c.009 0 1.562-2.122 1.594-2.122.033 0 .246 1.64-.032 2.102l.004.02z" fill="#231F20"/><path d="M38.077 21.95c.065.132-.033.255-.099.357-1.04.164-2.192.156-3.225.287a.915.915 0 01.332-.758c1.098.074 1.988.09 2.992.115z" fill="#ED1C24"/><path d="M16.514 28.975a.313.313 0 01.32-.32.32.32 0 01.319.32.32.32 0 01-.635 0h-.004zm1.229-.607l-.123.27c-.438.124-.303-.364-.996-.155h-.364a.643.643 0 01.43-.311 1.184 1.184 0 011.049.196h.004zm3.864-2.278a8.707 8.707 0 00-1.114 2.192c-.174.03-.345.074-.512.131a2.33 2.33 0 00-1.115.955 21.831 21.831 0 012.094-3.389l.647.111zm-1.196 3.282h-1.09c.41-.512.618-.758 1.172-.82.21-.013.42-.002.627.034-.254.257-.49.531-.71.82v-.034zm2.368-.668c-.278.205-.254.41-.372.644H20.8a2 2 0 01.82-.8c.383.018.765.07 1.139.157h.02zm1.172.66h-1.204c.065-.295.147-.471.372-.553.382.148.677.238.82.545l.012.008zm-1.024-3.528a15.773 15.773 0 01-2.225-.312 9.729 9.729 0 012.225-1.303v1.615zm-.742-1.66l-.82.48a5.842 5.842 0 00-1.639-1.701l.349-.455a5.25 5.25 0 012.135 1.676h-.025zM7.72 21.328c-.3.22-.576.475-.82.758-.188-.438-.511-.914-.38-1.401.268-.333.597-.612.97-.82 0 0 .083.742.222 1.45l.008.013zm-1.54-.29c.049.477.213.935.479 1.335-.131.23-.287.357-.455.627-.27-.05-.365-.52-.447-.742-.098-.454.066-.754.422-1.22zm4.245-2.263a12.25 12.25 0 00-.41 3.893l-.213.164c-.144-.6-.245-1.21-.303-1.823a15.16 15.16 0 01.18-2.201s.5-.18.746-.033zm-1.336 1.578a8.354 8.354 0 00-1.074.692 6.794 6.794 0 01-.147-1.385c.407-.265.831-.502 1.27-.709l-.049 1.402zm2.205 2.045a11.906 11.906 0 01-1.14 2.307l-1.401-.43a11.591 11.591 0 012.54-1.877zm3.299-.87a9.457 9.457 0 01-3.836 2.951l.561-1.229a4.358 4.358 0 001.303-.561c.537-.41.923-.742 1.492-1.172l.48.012z" fill="#00AEEF"/><path d="M17.329 21.529l-.562.7-1.028-.7h1.59z" fill="#00A651"/><path d="M23.398 19.988l-.66.782-.077-1.491.618-.873a8.374 8.374 0 00.132 1.565l-.013.017zm1.517.016a3.639 3.639 0 00-1.566 1.75h-.684c.09-.856 1.049-1.606 1.799-1.88.155-.034.373-.05.446.122l.005.008zm1.049 2.45c0 .1.024.238-.164.288-.189.049-.365-.345-.32-.447.25-.098.41-.057.484.16zm-.693.103c0 .074 0 .197-.123.189a.123.123 0 01-.164-.164c-.033-.099.074-.123.123-.189.05-.065.14.095.164.164zm-1.254-.102c.221.049.439.23 0 .41-.29-.009-.34-.402 0-.41zm2.656-1.734c-.05.238-.238.328-.595.43-.38.288-.164.742-.82.636-.229-.156-.098-.488-.114-.71.098-.347.213-.749.619-.872a1.008 1.008 0 01.922.512l-.012.004zm-1.963 1.05h-.865c-.025-.57 1.295-1.525 1.295-1.525-.244.477-.39.998-.43 1.533v-.009zm2.405.024a.779.779 0 010 .66.638.638 0 01-.594.164c-.238-.222-.512-.562-.439-.898a.967.967 0 01.48-.41c.27-.065.48.287.553.48v.004zm-3.561.8a.455.455 0 01-.332.47c-.197.041-.365 0-.488-.295-.106-.204 0-.295 0-.295a.844.844 0 01.82.115v.004zm1.098.335c0 .033.025.488 0 .488a4.18 4.18 0 01-.48-.189c-.024-.164.214-.328.497-.303l-.017.004zm.877.193l-.123.41c-.073.122-.41-.058-.48-.349.038-.127.603-.184.603-.061zm.787.483c-.164.148-.578.197-.676.082 0-.057.14-.578.311-.578.25.054.316.357.365.496zm-1.606-1.344a.266.266 0 010 .332l-.312-.123c-.082-.106.041-.262.295-.213l.017.004zm2.282.705a.348.348 0 01-.348.357.34.34 0 01-.279-.41.922.922 0 01.627.049v.004z" fill="#00AEEF"/><path d="M32.856 21.595c-.194.484-.44.945-.733 1.376a48.732 48.732 0 00-3.103.496 19.23 19.23 0 011.353-2.344c.816.21 1.646.368 2.483.471zM18.406 2.808c.13.318.148.671.05 1 .304-.08.601-.184.889-.311 0 .172 0 .311.123.356l.381-.188c.11.306.32.567.594.742.82.188 1.988-.074 2.557.454.255.255.603.644.488 1.082-.197.668-1.709 1.23-2.524 1.996-.172.205-.685-.197-.939-.41a3.302 3.302 0 01-2.049 1.598c-.7.082-1.532-.024-2.208.074l-.066-.41c-.357-.295-.41 0-.791.099-.164-.504-.356-.156-.652-.189-1.229-.213-2.516-1.864-3.135-1.41-.139-.032 0-.372-.22-.41-.214-.139-.41.124-.693.19.024-.312-.652-.41-1.148-.8-.057-.172.148-.074.09-.246a1.074 1.074 0 01-.455-.561C9.805 5.137 9.952 3.74 11.19 3.99c.248.076.482.192.693.344.087-.103.18-.202.278-.295.41.147.488-.263.758-.381a.275.275 0 00.164.332c.345-.074.472-.513.82-.57.11.431.382.803.758 1.04 1.41.448 1.881-1.392 3.053-1.831a.82.82 0 01.693.172v.008z" fill="#ED1C24"/><path d="M19.73 21.168l-7.548-.008V10.165l7.557.008-.009 10.995z" fill="#F7941E"/><path d="M23.75 12.542a1.616 1.616 0 01-1.564-2.25 1.614 1.614 0 011.565-.975c.32-.004.634.094.897.278l1.64-.864c-.865-.463-1.718-.857-2.574-1.344-.09-.09.356-.332.14-.595-.288-.32-.866.263-1.23.595-.189.237-.213.545.495.545l-2.737 2.991 4.254 3.176 1.188-1.254-1.008-.512c-.36.1-.727.169-1.098.205l.033.004z" fill="#00AEEF"/><path d="M20.058 18.017l-.008-3.3 1.848-2.208 1.55 1.119-3.39 4.389z" fill="#00A651"/><path d="M25.443 15.181l-6.754 8.553-1.66-1.27s.759-.931.775-.94h2.283v-2.892l3.688-4.717 1.668 1.266z" fill="#ED1C24"/><path d="M12.858 15.624l-.008-1.996 1.561-.947 1.467.849 1.525-.8 1.582.873.004 1.972-1.48.934-.024 1.946-1.631.84-1.668-.946.008-1.914-1.336-.811z" fill="#231F20"/><path d="M29.344 11.01c-.164.139-2.598 1.84-2.598 1.84l-1.938-.996a1.318 1.318 0 01-1.033.331 1.27 1.27 0 11.857-2.217l2.377-1.13 2.25 1.385s.343.204.343.41a.598.598 0 01-.253.41l-.005-.034z" fill="#00AEEF"/><path d="M16.018 15.468v-1.68l1.377-.726 1.27.71v1.68l-1.287.757-1.36-.741zm-2.836-.025v-1.655l1.262-.718 1.221.726v1.655l-1.23.767-1.253-.775zm1.344 2.762l-.008-1.655 1.328-.775 1.352.766v1.705l-1.352.71-1.32-.75z" fill="#fff"/><path d="M22.771 10.931a.988.988 0 111.976 0 .988.988 0 01-1.976 0z" fill="#231F20"/><path d="M23.132 10.915a.63.63 0 111.261.008.63.63 0 01-1.261-.008z" fill="#00AEEF"/><path d="M26.68 11.026a.35.35 0 11-.7 0v-.82a.352.352 0 01.7 0v.82zm.173-.422v-.82a.356.356 0 01.709 0v1.709a.348.348 0 01-.349.348.36.36 0 01-.364-.348v-.881l.004-.008zm1.606.422a.35.35 0 11-.7 0v-.82a.352.352 0 01.584-.228c.065.06.105.14.112.228l.004.82zm-14.527 4.393V14h1.045v.254h-.75v.299h.684v.246h-.684v.364h.779v.255h-1.074zm2.192 1.294h.472v1.427h-.304v-1.19l-.295 1.189h-.303l-.295-1.189v1.189h-.303v-1.427h.471l.287 1.115.27-1.114zm1.533-2.426a.241.241 0 00-.164-.049h-.279v.41h.279a.238.238 0 00.164-.049.201.201 0 00.057-.164.188.188 0 00-.057-.156v.008zm.23.513a.532.532 0 01-.365.106h-.303v.513h-.296v-1.427h.62a.513.513 0 01.343.115.525.525 0 010 .693zm72.169.975v2.274h8.806v-2.274h-1.565a.41.41 0 01-.41-.41V8.354a.41.41 0 01.41-.41h1.565v-2.25h-8.798v2.25h1.64a.41.41 0 01.41.41v7.011a.41.41 0 01-.41.41h-1.648zm30.075 0v2.274h8.806v-2.274h-1.565a.41.41 0 01-.41-.41V8.354a.41.41 0 01.41-.41h1.565v-2.25h-8.798v2.25h1.639a.41.41 0 01.41.41v7.011a.41.41 0 01-.41.41h-1.647zm-34.554-.406V8.354a.43.43 0 01.43-.41h1.566V5.702h-8.397v2.25h1.639a.41.41 0 01.41.41v2.459l-4.553-5.115h-5.897c.024.025 0 2.242 0 2.242h1.64a.41.41 0 01.409.41v7.011a.41.41 0 01-.41.41h-1.64v2.27h8.406V15.8l2.143 2.275h6.266v-2.29h-1.566a.41.41 0 01-.446-.41v-.005zm-6.45.41h-1.533a.41.41 0 01-.41-.41v-1.745l1.947 2.151h.024l-.028.004zm36.558-.41V8.354a.43.43 0 01.43-.41h1.565V5.702h-8.396v2.25h1.639a.412.412 0 01.41.41v2.459l-4.553-5.115h-5.914v2.242h1.66a.41.41 0 01.41.41v7.011a.41.41 0 01-.41.41h-1.639v2.27h8.405V15.8l2.135 2.275h6.266v-2.29h-1.566a.442.442 0 01-.438-.41l-.004-.005zm-6.451.41h-1.532a.41.41 0 01-.41-.41v-1.745l1.946 2.151h.025l-.029.004zm-47.028.02h-.98v2.25h8.197v-2.262h-1.066c-.356-.049-.93.14-1.057-.295L64.46 5.71h-6.856l-2.98 9.782c-.139.43-.708.238-1.056.279H52.46v2.274h8.196v-2.25h-.758a.485.485 0 01-.529-.47l.373-1.23h2.623l.381 1.23a.505.505 0 01-.545.47l.004.005zm-1.197-5.736l.578 1.758H60.44l.57-1.758zm-9.011-3.336a2.262 2.262 0 00-1.799-1.033H39.134v2.25h1.558a.41.41 0 01.41.41v7.02a.41.41 0 01-.41.41h-1.558v2.265h9.016v-2.282h-1.676a.41.41 0 01-.41-.41V14.07h4.38a1.914 1.914 0 001.898-2.012v-3.91a2.405 2.405 0 00-.332-1.434l-.012.013zm-5.954 1.205h.97a.41.41 0 01.41.41v2.9a.41.41 0 01-.41.41h-.97v-3.72z" fill="#231F20"/><path d="M86.88 16.46h-.881a1.111 1.111 0 01-1.115-1.115V8.366A1.119 1.119 0 0186 7.251h.89v-.88h-7.004v.88h.938a1.11 1.11 0 011.115 1.115v4.221l-5.54-6.217H71.48v.89h.955a1.11 1.11 0 011.114 1.114v6.97a1.106 1.106 0 01-1.114 1.107h-.963v.89h7.003v-.89h-.897a1.112 1.112 0 01-1.115-1.114V11.84l5.163 5.475h5.262l-.008-.856zm30.108 0h-.881a1.107 1.107 0 01-1.031-.688 1.118 1.118 0 01-.084-.427V8.366a1.118 1.118 0 01.325-.79 1.113 1.113 0 01.79-.325h.889v-.88h-7.003v.88h.938a1.106 1.106 0 011.031.688c.056.135.084.28.084.427v4.221l-5.541-6.217h-4.917v.89h.954a1.115 1.115 0 011.031.687 1.1 1.1 0 01.084.427v6.97a1.108 1.108 0 01-1.115 1.107h-.963v.89h7.004v-.89h-.889a1.116 1.116 0 01-.79-.325 1.121 1.121 0 01-.325-.79v-3.495l5.163 5.475h5.262l-.016-.856zm-26.231.008v.889h7.405v-.897h-.89a1.123 1.123 0 01-1.114-1.123V8.354a1.112 1.112 0 011.114-1.115h.882v-.89h-7.405v.89h.938a1.11 1.11 0 011.115 1.115v6.99a1.112 1.112 0 01-1.115 1.116l-.93.008zm30.083 0v.889h7.405v-.897h-.897a1.123 1.123 0 01-1.115-1.123v-6.97a1.1 1.1 0 01.325-.79 1.12 1.12 0 01.79-.326h.889v-.88h-7.405v.889h.938a1.106 1.106 0 011.031.687c.056.136.084.28.084.427v6.991a1.118 1.118 0 01-.325.79 1.112 1.112 0 01-.79.325l-.93-.012zM51.404 7.296a1.73 1.73 0 00-1.377-.938h-10.22v.89h.885a1.11 1.11 0 011.114 1.114v6.991a1.119 1.119 0 01-1.114 1.115h-.89v.897h7.627v-.889h-1a1.091 1.091 0 01-1.09-1.115v-1.946s4.917.082 5.426-.221a1.427 1.427 0 00.741-1.09v-4.3l-.102-.508zm-4.38 5.05H45.35v-5.1h1.66a1.11 1.11 0 011.114 1.115v2.868a1.107 1.107 0 01-1.114 1.115h.012zm20.714 4.114a1.124 1.124 0 01-1.057-.677l-2.705-9.425h-5.843c-.43 1.303-1.971 6.524-2.59 8.606l-.238.82a1.123 1.123 0 01-1.057.676h-1.09v.889h6.827v-.898h-.098a1.131 1.131 0 01-1.23-1.123l.107-.41.48-1.54h3.634l.586 1.946a1.146 1.146 0 01-1.23 1.123h-.319v.922h6.868v-.93l-1.045.02zm-5.22-3.926h-2.976l-.049-.05 1.492-4.716 1.516 4.717.017.049z" fill="#ED1C24"/></g><defs><clipPath id="clip0_142_19518"><path fill="#fff" d="M0 0h136.286v32H0z"/></clipPath></defs></svg>